<svg version="1.1" id="Layer_1" xmlns="http://www.w3.org/2000/svg" xmlns:xlink="http://www.w3.org/1999/xlink" x="0px" y="0px"
	 width="100%" viewBox="0 0 912 729" enable-background="new 0 0 912 729" xml:space="preserve">
<path fill="#04090F" opacity="1.000000" stroke="none" 
	d="
M553.000000,730.000000 
	C368.666718,730.000000 184.833450,730.000000 1.000123,730.000000 
	C1.000082,487.000122 1.000082,244.000259 1.000041,1.000286 
	C304.999786,1.000191 608.999573,1.000191 912.999512,1.000095 
	C912.999634,243.999710 912.999634,486.999420 912.999817,729.999573 
	C793.166687,730.000000 673.333313,730.000000 553.000000,730.000000 
M363.374023,32.209137 
	C193.775055,89.124565 108.143112,276.133789 175.995499,441.402161 
	C186.755295,467.609833 201.254288,491.631409 217.709625,514.571045 
	C152.343842,528.396790 100.332245,562.655273 61.492489,616.937622 
	C63.441189,616.300110 65.020706,615.150696 66.336990,613.753357 
	C103.158714,574.663025 146.935623,547.467285 199.946823,536.596680 
	C211.415848,534.244812 223.321320,534.021362 235.208969,533.480408 
	C260.660126,560.941101 290.265076,582.836853 323.696259,599.631165 
	C325.171875,600.372498 326.352631,601.700806 326.887604,602.635010 
	C289.749451,601.394226 254.238892,607.551270 221.418457,625.883423 
	C188.908432,644.042236 153.064682,682.020752 147.289673,705.456177 
	C149.954132,702.307007 151.855621,700.211365 153.591095,697.986145 
	C197.102966,642.195618 254.375702,619.615173 324.148254,627.532410 
	C349.863159,630.450439 374.663727,637.636108 399.520844,644.508179 
	C461.789307,661.723206 524.261230,678.031067 589.074463,682.470154 
	C621.494812,684.690613 653.677002,683.343262 685.105164,673.985352 
	C722.011475,662.996216 753.278809,643.821838 774.437134,610.771301 
	C795.690491,577.572449 800.551025,540.799133 796.541870,502.342712 
	C796.032776,497.459259 795.222534,492.607208 794.551819,487.740601 
	C777.796997,514.051514 758.536743,537.033508 730.617126,551.454712 
	C703.193909,565.619385 673.733948,571.031738 643.082642,572.215942 
	C698.533081,529.575195 737.172485,475.472412 756.237732,408.120667 
	C775.274780,340.868469 771.282837,274.694092 745.562073,209.802826 
	C753.703674,268.822266 741.706238,323.023651 705.923584,370.970276 
	C670.213013,418.820099 622.150208,446.797119 562.983154,454.699768 
	C456.308533,468.947845 354.825836,398.618835 330.381744,293.428772 
	C318.258881,241.260452 323.947754,190.564163 350.680695,144.035187 
	C396.658112,64.011055 467.572021,29.165659 559.129578,33.683285 
	C557.719604,32.613476 556.206726,31.875454 554.619202,31.373011 
	C525.869934,22.273911 496.456665,17.253225 466.267456,16.800915 
	C431.339996,16.277615 397.216736,20.887953 363.374023,32.209137 
M544.181702,184.135834 
	C543.093872,176.734924 542.006104,169.334015 540.918335,161.933090 
	C540.359497,161.928207 539.800659,161.923325 539.241821,161.918427 
	C538.854614,164.084732 538.415283,166.243210 538.089417,168.418686 
	C536.807617,176.976303 535.654846,185.554276 534.281372,194.096924 
	C531.932739,208.706100 524.716675,216.167023 510.382080,219.117004 
	C504.208893,220.387421 498.050995,221.732040 491.886139,223.042953 
	C498.642700,225.350113 505.315521,226.715927 511.976166,228.138718 
	C524.259583,230.762573 532.202698,239.120804 534.093384,251.491196 
	C535.501343,260.703064 536.779785,269.934662 538.163574,279.150330 
	C538.609619,282.120758 539.207214,285.068420 539.735413,288.026520 
	C542.307068,276.036987 544.064697,264.193909 545.849854,252.354965 
	C547.884216,238.863205 555.482971,230.800140 568.689209,228.028336 
	C575.151367,226.672043 581.602478,225.263123 588.058594,223.878006 
	C580.984802,221.502472 573.962463,220.164337 567.013855,218.515854 
	C555.211548,215.715897 547.688293,207.323944 545.931335,195.361664 
	C545.423584,191.904846 544.857300,188.456619 544.181702,184.135834 
M609.379272,109.049515 
	C621.842651,111.592453 624.335083,114.239105 626.051147,126.508736 
	C626.694702,131.109879 627.505249,135.687653 628.239624,140.276077 
	C629.895325,134.026321 630.774353,127.775864 631.860107,121.561531 
	C632.947815,115.336235 636.812439,111.548943 642.855530,110.020012 
	C646.390930,109.125542 649.986023,108.467270 654.567444,107.485680 
	C650.867920,106.592232 648.149414,105.900154 645.414307,105.281624 
	C635.965759,103.144852 632.904602,99.950249 631.347046,90.371780 
	C630.487549,85.086739 629.737671,79.783875 628.938416,74.489044 
	C627.330322,79.972710 626.558167,85.401840 625.739380,90.823936 
	C624.425354,99.525520 620.888550,103.242584 612.218384,105.147690 
	C609.783264,105.682785 607.362854,106.285324 604.935730,106.856926 
	C604.951721,107.282166 604.967773,107.707413 604.983765,108.132652 
	C606.174683,108.436371 607.365601,108.740089 609.379272,109.049515 
M819.089355,379.784363 
	C816.789062,380.257568 814.488831,380.730804 812.188538,381.204041 
	C813.956726,382.438232 815.693481,382.831329 817.436584,383.193787 
	C829.796265,385.763885 832.490417,388.729004 834.105469,401.251129 
	C834.641663,405.408813 835.424194,409.534729 836.094116,413.675140 
	C837.949768,407.784241 838.839600,401.907715 839.819031,396.046173 
	C840.938965,389.343323 845.143921,385.592468 851.570984,384.098022 
	C854.939697,383.314697 858.330872,382.627960 862.763000,381.670532 
	C859.917297,380.985687 858.194763,380.523407 856.451721,380.159271 
	C842.816162,377.310760 840.815125,375.136383 838.899902,361.346954 
	C838.382080,357.619263 837.631104,353.923950 836.987244,350.213776 
	C835.219788,354.885620 834.535339,359.453308 833.901245,364.027954 
	C832.553040,373.753540 829.326782,377.348541 819.089355,379.784363 
M125.175850,484.334564 
	C129.092438,483.129883 133.009018,481.925171 138.502640,480.235413 
	C135.175781,479.165161 133.269501,478.371979 131.284454,477.944611 
	C122.920029,476.143890 119.121010,472.023651 117.960922,463.451355 
	C117.236824,458.100769 116.387718,452.767151 115.594704,447.425903 
	C113.880028,452.830444 112.991058,458.319458 112.136375,463.813782 
	C110.784477,472.504486 107.249786,476.182800 98.546036,477.969574 
	C96.608025,478.367401 94.692299,478.873779 92.766312,479.330200 
	C92.741539,479.827209 92.716766,480.324188 92.691994,480.821198 
	C98.894829,482.687836 106.818138,482.320007 109.679222,489.184845 
	C112.240692,495.330811 113.050453,502.206848 114.633064,508.760773 
	C115.947128,507.052734 116.603210,505.011658 117.005768,502.921722 
	C118.272186,496.346893 117.743515,489.048279 125.175850,484.334564 
z"/>
<path fill="#EDEDED" opacity="1.000000" stroke="none" 
	d="
M235.025757,532.817566 
	C223.321320,534.021362 211.415848,534.244812 199.946823,536.596680 
	C146.935623,547.467285 103.158714,574.663025 66.336990,613.753357 
	C65.020706,615.150696 63.441189,616.300110 61.492489,616.937622 
	C100.332245,562.655273 152.343842,528.396790 218.446838,514.378906 
	C230.056625,512.799377 240.892227,510.791138 251.808701,510.141235 
	C284.475677,508.196320 316.637207,512.326538 348.148590,520.669189 
	C383.693970,530.079773 418.949921,540.578308 454.428497,550.248596 
	C486.551361,559.004272 519.116028,565.685669 552.275391,569.143677 
	C565.491272,570.521851 578.711609,572.020020 591.968994,572.785400 
	C602.173462,573.374451 612.439087,572.902771 623.780212,572.902771 
	C609.773438,571.433838 596.837585,570.551025 584.053833,568.646667 
	C547.583557,563.213867 512.144409,553.444641 477.121948,542.119873 
	C441.789490,530.694946 406.541077,519.010010 371.207794,507.587830 
	C335.347137,495.995178 298.584198,489.865631 260.843536,490.170288 
	C257.231445,490.199432 254.879837,489.032837 253.023621,486.047241 
	C247.312195,476.860779 241.153793,467.936737 235.764008,458.568451 
	C211.403000,416.225464 198.735138,370.392578 196.183685,321.765625 
	C195.083527,300.798553 196.517960,279.897217 199.827957,259.105896 
	C209.357788,199.245483 234.649033,146.870560 274.921600,101.825340 
	C299.431702,74.410606 328.142120,52.094658 360.831665,35.039185 
	C362.063721,34.396358 363.029633,33.243374 364.119568,32.328117 
	C397.216736,20.887953 431.339996,16.277615 466.267456,16.800915 
	C496.456665,17.253225 525.869934,22.273911 554.619202,31.373011 
	C556.206726,31.875454 557.719604,32.613476 559.129578,33.683285 
	C467.572021,29.165659 396.658112,64.011055 350.680695,144.035187 
	C323.947754,190.564163 318.258881,241.260452 330.381744,293.428772 
	C354.825836,398.618835 456.308533,468.947845 562.983154,454.699768 
	C622.150208,446.797119 670.213013,418.820099 705.923584,370.970276 
	C741.706238,323.023651 753.703674,268.822266 745.562073,209.802826 
	C771.282837,274.694092 775.274780,340.868469 756.237732,408.120667 
	C737.172485,475.472412 698.533081,529.575195 643.082642,572.215942 
	C673.733948,571.031738 703.193909,565.619385 730.617126,551.454712 
	C758.536743,537.033508 777.796997,514.051514 794.551819,487.740601 
	C795.222534,492.607208 796.032776,497.459259 796.541870,502.342712 
	C800.551025,540.799133 795.690491,577.572449 774.437134,610.771301 
	C753.278809,643.821838 722.011475,662.996216 685.105164,673.985352 
	C653.677002,683.343262 621.494812,684.690613 589.074463,682.470154 
	C524.261230,678.031067 461.789307,661.723206 399.520844,644.508179 
	C374.663727,637.636108 349.863159,630.450439 324.148254,627.532410 
	C254.375702,619.615173 197.102966,642.195618 153.591095,697.986145 
	C151.855621,700.211365 149.954132,702.307007 147.289673,705.456177 
	C153.064682,682.020752 188.908432,644.042236 221.418457,625.883423 
	C254.238892,607.551270 289.749451,601.394226 327.748718,602.843445 
	C341.158020,604.137329 353.876434,604.274841 366.221375,606.492004 
	C398.873718,612.356323 431.338318,619.258118 463.934265,625.449036 
	C474.495880,627.454895 485.233063,628.536743 496.104431,630.386230 
	C525.532715,635.031067 554.906555,637.034180 584.432190,637.243896 
	C613.661438,637.451477 642.632019,635.586975 671.255188,629.099670 
	C719.922180,618.069519 755.205627,590.970337 774.500488,544.309082 
	C775.584106,541.688660 776.305786,538.918518 777.628540,534.905945 
	C775.931458,536.132202 775.296997,536.369934 775.015259,536.825684 
	C757.819397,564.642151 733.115417,583.480896 703.377197,595.976868 
	C665.576233,611.860657 625.904297,615.842834 585.331726,613.555908 
	C578.238342,613.156128 571.119141,613.214539 563.834351,612.719360 
	C562.084229,611.929443 560.534973,611.361267 558.935669,611.052002 
	C541.335022,607.648010 523.410156,605.424744 506.193146,600.647156 
	C479.128784,593.137085 452.505859,584.018982 425.758423,575.388367 
	C393.151215,564.867065 360.758850,553.651611 327.985809,543.682373 
	C305.691620,536.900635 282.561584,533.670105 259.292084,532.226501 
	C251.246490,531.727417 243.116959,532.581604 235.025757,532.817566 
M229.384583,261.020386 
	C221.059052,278.556763 227.965210,298.403595 245.257645,306.636047 
	C259.890747,313.602509 280.453613,308.133881 286.826538,294.887451 
	C278.957489,298.858124 271.339813,300.302460 263.347565,297.618286 
	C255.125748,294.857056 249.175461,289.536163 246.044678,281.498016 
	C239.772980,265.395691 245.613235,253.890564 265.160553,243.171509 
	C254.005661,238.571335 237.027466,246.803940 229.384583,261.020386 
M599.278198,530.529480 
	C597.766296,532.522156 596.254456,534.514832 594.481689,536.851379 
	C605.390320,535.450378 611.775574,526.364380 611.093872,514.057312 
	C610.552979,504.293304 601.605408,496.100220 591.281189,495.915283 
	C581.145508,495.733734 572.408936,501.706177 571.643066,509.340210 
	C581.688477,503.710144 589.227356,503.506683 595.195984,508.704498 
	C601.613708,514.293457 603.105652,521.412781 599.278198,530.529480 
M732.531738,416.162781 
	C729.990295,405.588898 721.843811,398.772705 712.173035,399.128540 
	C704.356201,399.416168 696.882141,404.683350 695.879883,410.610687 
	C706.325439,405.469116 713.271301,406.390472 719.430420,413.927887 
	C722.536011,417.728516 724.139587,422.290924 722.366333,426.944092 
	C720.742004,431.206543 718.002441,435.043976 715.929016,438.755798 
	C725.724182,438.313782 733.185547,429.023499 732.531738,416.162781 
M293.034973,434.492340 
	C298.821991,438.699615 303.200684,439.120117 308.179413,435.946564 
	C312.162109,433.407959 314.467438,428.183502 313.485687,423.921204 
	C312.295532,418.753937 308.481567,414.704742 304.058319,414.038483 
	C298.836884,413.252045 294.492249,414.734711 291.438538,419.230774 
	C288.169342,424.044189 288.481598,428.112518 293.034973,434.492340 
M484.392181,495.660217 
	C489.261261,497.437775 492.053070,501.080780 492.673889,506.039459 
	C493.492676,512.579895 489.297119,516.610535 483.940674,520.147522 
	C491.961365,521.142639 498.808014,516.144836 500.640167,508.564545 
	C502.386444,501.339722 498.153259,493.493286 491.091431,490.865417 
	C484.667999,488.475098 477.352692,490.505280 474.831512,495.343475 
	C477.757568,495.343475 480.703949,495.343475 484.392181,495.660217 
M288.188110,173.817856 
	C292.906891,174.189850 297.580109,174.431244 301.351837,169.191299 
	C293.501740,169.248566 287.264099,167.807373 284.849548,160.019089 
	C282.465546,152.329437 287.005341,147.791550 292.324921,143.126602 
	C288.443909,143.850037 284.543060,144.610779 281.840240,146.830383 
	C271.767639,155.102219 274.573181,167.896957 288.188110,173.817856 
M385.185791,456.987518 
	C388.322479,454.916412 391.459198,452.845306 394.281128,450.982056 
	C386.038635,447.137238 386.038635,447.137238 382.193329,432.091125 
	C381.492523,441.429199 381.028290,450.023071 369.375427,451.508179 
	C382.065216,451.768372 380.548859,461.574371 382.496735,469.838257 
	C383.436554,465.170532 384.184509,461.455902 385.185791,456.987518 
M665.495483,486.290344 
	C668.404541,484.414001 671.313538,482.537628 675.139587,480.069763 
	C663.265076,480.342499 664.551514,471.016541 662.448853,463.799377 
	C661.038757,471.522095 661.399780,480.131683 649.512634,480.998352 
	C661.536621,481.786743 660.797607,490.668823 662.890991,497.986389 
	C663.645996,494.323822 664.401001,490.661224 665.495483,486.290344 
M382.983368,64.684715 
	C383.399475,67.112465 383.815582,69.540215 384.231720,71.967972 
	C385.991516,64.187309 385.838806,55.263657 397.942627,54.553776 
	C385.712830,54.088642 386.106842,44.897144 384.441315,37.091259 
	C382.988586,45.086845 383.206329,53.883381 370.389679,54.064766 
	C381.185486,58.450153 381.185486,58.450153 382.983368,64.684715 
M354.087067,96.480179 
	C354.004211,92.269318 351.896088,89.910538 347.650238,89.967453 
	C343.768219,90.019478 340.762390,92.298531 341.363739,96.027214 
	C341.766602,98.525131 344.375458,101.824417 346.708405,102.585663 
	C350.306610,103.759766 353.437561,101.629639 354.087067,96.480179 
M240.525772,358.044037 
	C239.135452,354.675049 236.771133,352.026398 233.038025,353.232361 
	C230.989639,353.894073 228.764160,356.321899 228.093460,358.423981 
	C226.910568,362.131317 229.629623,365.507904 233.201935,365.964691 
	C237.224792,366.479034 239.741776,364.074707 240.525772,358.044037 
M302.455017,168.606689 
	C302.455017,168.606689 302.365295,168.478790 302.455017,168.606689 
z"/>
<path fill="#A8ABB9" opacity="1.000000" stroke="none" 
	d="
M363.746796,32.268627 
	C363.029633,33.243374 362.063721,34.396358 360.831665,35.039185 
	C328.142120,52.094658 299.431702,74.410606 274.921600,101.825340 
	C234.649033,146.870560 209.357788,199.245483 199.827957,259.105896 
	C196.517960,279.897217 195.083527,300.798553 196.183685,321.765625 
	C198.735138,370.392578 211.403000,416.225464 235.764008,458.568451 
	C241.153793,467.936737 247.312195,476.860779 253.023621,486.047241 
	C254.879837,489.032837 257.231445,490.199432 260.843536,490.170288 
	C298.584198,489.865631 335.347137,495.995178 371.207794,507.587830 
	C406.541077,519.010010 441.789490,530.694946 477.121948,542.119873 
	C512.144409,553.444641 547.583557,563.213867 584.053833,568.646667 
	C596.837585,570.551025 609.773438,571.433838 623.780212,572.902771 
	C612.439087,572.902771 602.173462,573.374451 591.968994,572.785400 
	C578.711609,572.020020 565.491272,570.521851 552.275391,569.143677 
	C519.116028,565.685669 486.551361,559.004272 454.428497,550.248596 
	C418.949921,540.578308 383.693970,530.079773 348.148590,520.669189 
	C316.637207,512.326538 284.475677,508.196320 251.808701,510.141235 
	C240.892227,510.791138 230.056625,512.799377 218.779724,514.157593 
	C201.254288,491.631409 186.755295,467.609833 175.995499,441.402161 
	C108.143112,276.133789 193.775055,89.124565 363.746796,32.268627 
z"/>
<path fill="#A8ABB9" opacity="1.000000" stroke="none" 
	d="
M495.889954,630.041260 
	C485.233063,628.536743 474.495880,627.454895 463.934265,625.449036 
	C431.338318,619.258118 398.873718,612.356323 366.221375,606.492004 
	C353.876434,604.274841 341.158020,604.137329 328.140259,602.903809 
	C326.352631,601.700806 325.171875,600.372498 323.696259,599.631165 
	C290.265076,582.836853 260.660126,560.941101 235.117371,533.148987 
	C243.116959,532.581604 251.246490,531.727417 259.292084,532.226501 
	C282.561584,533.670105 305.691620,536.900635 327.985809,543.682373 
	C360.758850,553.651611 393.151215,564.867065 425.758423,575.388367 
	C452.505859,584.018982 479.128784,593.137085 506.193146,600.647156 
	C523.410156,605.424744 541.335022,607.648010 558.935669,611.052002 
	C560.534973,611.361267 562.084229,611.929443 563.658386,613.040161 
	C550.288269,617.483826 536.996155,621.585205 523.516907,624.933472 
	C514.444763,627.187073 505.108215,628.375977 495.889954,630.041260 
z"/>
<path fill="#E7E7E7" opacity="1.000000" stroke="none" 
	d="
M544.249817,184.570145 
	C544.857300,188.456619 545.423584,191.904846 545.931335,195.361664 
	C547.688293,207.323944 555.211548,215.715897 567.013855,218.515854 
	C573.962463,220.164337 580.984802,221.502472 588.058594,223.878006 
	C581.602478,225.263123 575.151367,226.672043 568.689209,228.028336 
	C555.482971,230.800140 547.884216,238.863205 545.849854,252.354965 
	C544.064697,264.193909 542.307068,276.036987 539.735413,288.026520 
	C539.207214,285.068420 538.609619,282.120758 538.163574,279.150330 
	C536.779785,269.934662 535.501343,260.703064 534.093384,251.491196 
	C532.202698,239.120804 524.259583,230.762573 511.976166,228.138718 
	C505.315521,226.715927 498.642700,225.350113 491.886139,223.042953 
	C498.050995,221.732040 504.208893,220.387421 510.382080,219.117004 
	C524.716675,216.167023 531.932739,208.706100 534.281372,194.096924 
	C535.654846,185.554276 536.807617,176.976303 538.089417,168.418686 
	C538.415283,166.243210 538.854614,164.084732 539.241821,161.918427 
	C539.800659,161.923325 540.359497,161.928207 540.918335,161.933090 
	C542.006104,169.334015 543.093872,176.734924 544.249817,184.570145 
z"/>
<path fill="#E1E1E2" opacity="1.000000" stroke="none" 
	d="
M608.967896,109.046661 
	C607.365601,108.740089 606.174683,108.436371 604.983765,108.132652 
	C604.967773,107.707413 604.951721,107.282166 604.935730,106.856926 
	C607.362854,106.285324 609.783264,105.682785 612.218384,105.147690 
	C620.888550,103.242584 624.425354,99.525520 625.739380,90.823936 
	C626.558167,85.401840 627.330322,79.972710 628.938416,74.489044 
	C629.737671,79.783875 630.487549,85.086739 631.347046,90.371780 
	C632.904602,99.950249 635.965759,103.144852 645.414307,105.281624 
	C648.149414,105.900154 650.867920,106.592232 654.567444,107.485680 
	C649.986023,108.467270 646.390930,109.125542 642.855530,110.020012 
	C636.812439,111.548943 632.947815,115.336235 631.860107,121.561531 
	C630.774353,127.775864 629.895325,134.026321 628.239624,140.276077 
	C627.505249,135.687653 626.694702,131.109879 626.051147,126.508736 
	C624.335083,114.239105 621.842651,111.592453 608.967896,109.046661 
z"/>
<path fill="#E3E4E4" opacity="1.000000" stroke="none" 
	d="
M819.484741,379.686096 
	C829.326782,377.348541 832.553040,373.753540 833.901245,364.027954 
	C834.535339,359.453308 835.219788,354.885620 836.987244,350.213776 
	C837.631104,353.923950 838.382080,357.619263 838.899902,361.346954 
	C840.815125,375.136383 842.816162,377.310760 856.451721,380.159271 
	C858.194763,380.523407 859.917297,380.985687 862.763000,381.670532 
	C858.330872,382.627960 854.939697,383.314697 851.570984,384.098022 
	C845.143921,385.592468 840.938965,389.343323 839.819031,396.046173 
	C838.839600,401.907715 837.949768,407.784241 836.094116,413.675140 
	C835.424194,409.534729 834.641663,405.408813 834.105469,401.251129 
	C832.490417,388.729004 829.796265,385.763885 817.436584,383.193787 
	C815.693481,382.831329 813.956726,382.438232 812.188538,381.204041 
	C814.488831,380.730804 816.789062,380.257568 819.484741,379.686096 
z"/>
<path fill="#E2E3E3" opacity="1.000000" stroke="none" 
	d="
M124.865158,484.560913 
	C117.743515,489.048279 118.272186,496.346893 117.005768,502.921722 
	C116.603210,505.011658 115.947128,507.052734 114.633064,508.760773 
	C113.050453,502.206848 112.240692,495.330811 109.679222,489.184845 
	C106.818138,482.320007 98.894829,482.687836 92.691994,480.821198 
	C92.716766,480.324188 92.741539,479.827209 92.766312,479.330200 
	C94.692299,478.873779 96.608025,478.367401 98.546036,477.969574 
	C107.249786,476.182800 110.784477,472.504486 112.136375,463.813782 
	C112.991058,458.319458 113.880028,452.830444 115.594704,447.425903 
	C116.387718,452.767151 117.236824,458.100769 117.960922,463.451355 
	C119.121010,472.023651 122.920029,476.143890 131.284454,477.944611 
	C133.269501,478.371979 135.175781,479.165161 138.502640,480.235413 
	C133.009018,481.925171 129.092438,483.129883 124.865158,484.560913 
z"/>
<path fill="#090E14" opacity="1.000000" stroke="none" 
	d="
M496.104431,630.386230 
	C505.108215,628.375977 514.444763,627.187073 523.516907,624.933472 
	C536.996155,621.585205 550.288269,617.483826 563.835938,613.382202 
	C571.119141,613.214539 578.238342,613.156128 585.331726,613.555908 
	C625.904297,615.842834 665.576233,611.860657 703.377197,595.976868 
	C733.115417,583.480896 757.819397,564.642151 775.015259,536.825684 
	C775.296997,536.369934 775.931458,536.132202 777.628540,534.905945 
	C776.305786,538.918518 775.584106,541.688660 774.500488,544.309082 
	C755.205627,590.970337 719.922180,618.069519 671.255188,629.099670 
	C642.632019,635.586975 613.661438,637.451477 584.432190,637.243896 
	C554.906555,637.034180 525.532715,635.031067 496.104431,630.386230 
z"/>
<path fill="#AAADBB" opacity="1.000000" stroke="none" 
	d="
M229.557083,260.686035 
	C237.027466,246.803940 254.005661,238.571335 265.160553,243.171509 
	C245.613235,253.890564 239.772980,265.395691 246.044678,281.498016 
	C249.175461,289.536163 255.125748,294.857056 263.347565,297.618286 
	C271.339813,300.302460 278.957489,298.858124 286.826538,294.887451 
	C280.453613,308.133881 259.890747,313.602509 245.257645,306.636047 
	C227.965210,298.403595 221.059052,278.556763 229.557083,260.686035 
z"/>
<path fill="#ACAEBC" opacity="1.000000" stroke="none" 
	d="
M599.454346,530.197571 
	C603.105652,521.412781 601.613708,514.293457 595.195984,508.704498 
	C589.227356,503.506683 581.688477,503.710144 571.643066,509.340210 
	C572.408936,501.706177 581.145508,495.733734 591.281189,495.915283 
	C601.605408,496.100220 610.552979,504.293304 611.093872,514.057312 
	C611.775574,526.364380 605.390320,535.450378 594.481689,536.851379 
	C596.254456,534.514832 597.766296,532.522156 599.454346,530.197571 
z"/>
<path fill="#ACAEBC" opacity="1.000000" stroke="none" 
	d="
M732.638916,416.561249 
	C733.185547,429.023499 725.724182,438.313782 715.929016,438.755798 
	C718.002441,435.043976 720.742004,431.206543 722.366333,426.944092 
	C724.139587,422.290924 722.536011,417.728516 719.430420,413.927887 
	C713.271301,406.390472 706.325439,405.469116 695.879883,410.610687 
	C696.882141,404.683350 704.356201,399.416168 712.173035,399.128540 
	C721.843811,398.772705 729.990295,405.588898 732.638916,416.561249 
z"/>
<path fill="#AAADBA" opacity="1.000000" stroke="none" 
	d="
M292.768921,434.225037 
	C288.481598,428.112518 288.169342,424.044189 291.438538,419.230774 
	C294.492249,414.734711 298.836884,413.252045 304.058319,414.038483 
	C308.481567,414.704742 312.295532,418.753937 313.485687,423.921204 
	C314.467438,428.183502 312.162109,433.407959 308.179413,435.946564 
	C303.200684,439.120117 298.821991,438.699615 292.768921,434.225037 
z"/>
<path fill="#ADAFBC" opacity="1.000000" stroke="none" 
	d="
M484.021240,495.501831 
	C480.703949,495.343475 477.757568,495.343475 474.831512,495.343475 
	C477.352692,490.505280 484.667999,488.475098 491.091431,490.865417 
	C498.153259,493.493286 502.386444,501.339722 500.640167,508.564545 
	C498.808014,516.144836 491.961365,521.142639 483.940674,520.147522 
	C489.297119,516.610535 493.492676,512.579895 492.673889,506.039459 
	C492.053070,501.080780 489.261261,497.437775 484.021240,495.501831 
z"/>
<path fill="#ADB0BD" opacity="1.000000" stroke="none" 
	d="
M287.797302,173.706146 
	C274.573181,167.896957 271.767639,155.102219 281.840240,146.830383 
	C284.543060,144.610779 288.443909,143.850037 292.324921,143.126602 
	C287.005341,147.791550 282.465546,152.329437 284.849548,160.019089 
	C287.264099,167.807373 293.501740,169.248566 301.351837,169.191299 
	C297.580109,174.431244 292.906891,174.189850 287.797302,173.706146 
z"/>
<path fill="#AEB1BD" opacity="1.000000" stroke="none" 
	d="
M385.059113,457.364380 
	C384.184509,461.455902 383.436554,465.170532 382.496735,469.838257 
	C380.548859,461.574371 382.065216,451.768372 369.375427,451.508179 
	C381.028290,450.023071 381.492523,441.429199 382.193329,432.091125 
	C386.038635,447.137238 386.038635,447.137238 394.281128,450.982056 
	C391.459198,452.845306 388.322479,454.916412 385.059113,457.364380 
z"/>
<path fill="#AFB2BE" opacity="1.000000" stroke="none" 
	d="
M665.325684,486.644501 
	C664.401001,490.661224 663.645996,494.323822 662.890991,497.986389 
	C660.797607,490.668823 661.536621,481.786743 649.512634,480.998352 
	C661.399780,480.131683 661.038757,471.522095 662.448853,463.799377 
	C664.551514,471.016541 663.265076,480.342499 675.139587,480.069763 
	C671.313538,482.537628 668.404541,484.414001 665.325684,486.644501 
z"/>
<path fill="#AEB0BD" opacity="1.000000" stroke="none" 
	d="
M382.951416,64.282166 
	C381.185486,58.450153 381.185486,58.450153 370.389679,54.064766 
	C383.206329,53.883381 382.988586,45.086845 384.441315,37.091259 
	C386.106842,44.897144 385.712830,54.088642 397.942627,54.553776 
	C385.838806,55.263657 385.991516,64.187309 384.231720,71.967972 
	C383.815582,69.540215 383.399475,67.112465 382.951416,64.282166 
z"/>
<path fill="#ACAEBC" opacity="1.000000" stroke="none" 
	d="
M354.074921,96.885635 
	C353.437561,101.629639 350.306610,103.759766 346.708405,102.585663 
	C344.375458,101.824417 341.766602,98.525131 341.363739,96.027214 
	C340.762390,92.298531 343.768219,90.019478 347.650238,89.967453 
	C351.896088,89.910538 354.004211,92.269318 354.074921,96.885635 
z"/>
<path fill="#ABAEBB" opacity="1.000000" stroke="none" 
	d="
M240.633163,358.403748 
	C239.741776,364.074707 237.224792,366.479034 233.201935,365.964691 
	C229.629623,365.507904 226.910568,362.131317 228.093460,358.423981 
	C228.764160,356.321899 230.989639,353.894073 233.038025,353.232361 
	C236.771133,352.026398 239.135452,354.675049 240.633163,358.403748 
z"/>
<path fill="#ADB0BD" opacity="1.000000" stroke="none" 
	d="
M302.410156,168.542740 
	C302.365295,168.478790 302.455017,168.606689 302.410156,168.542740 
z"/>
</svg>